<svg xmlns="http://www.w3.org/2000/svg" xmlns:xlink="http://www.w3.org/1999/xlink" width="44.396" height="44.124" viewBox="0 0 44.396 44.124">
  <defs>
    <clipPath id="clip-path">
      <rect id="Rectangle_8908" data-name="Rectangle 8908" width="44.396" height="44.124" rx="7" transform="translate(0 0)" fill="#fff" stroke="#707070" stroke-width="1"/>
    </clipPath>
  </defs>
  <g id="Mask_Group_22" data-name="Mask Group 22" clip-path="url(#clip-path)">
    <path id="Path_85833" data-name="Path 85833" d="M467.838,143.112v43.915h-2.2c-.158-.66-.568-2.292-.53-2.341.2-.256.479-.484.406-.75s-.609-.567-.725-.936a3.966,3.966,0,0,0,0-2.091,3.865,3.865,0,0,0-1.56-2.051,1.992,1.992,0,0,0-1.168-.048,3.126,3.126,0,0,0-1.394-.58c-.649-.027-3,.085-3,.085a28.008,28.008,0,0,0-3.184-1.072c-1.154-.257-2.945-.749-2.945-.749l-2.023-.92c-1.011-.46-.156.412-1.011-.46s-1.341-1.415-1.341-1.415l.2-1.037a3.042,3.042,0,0,0,.613-1.438c.046-.73.07-1.934.07-1.934s.028.025.332-.058a.764.764,0,0,0,.6-.526c.078-.284.016-.718.066-1.028s.169-.784.176-.88a2.648,2.648,0,0,1,.407-.774c.23-.326.358-.464.282-.683a1.862,1.862,0,0,1-.093-.411c-.022-.121-.065-.386-.331-.421a.719.719,0,0,0-.511.051c-.094.068-.252.205-.252.205s.326-1.832.342-2.55a10.84,10.84,0,0,0-.08-2.017c-.094-.388-.175-.99-.175-.99a.938.938,0,0,0,.119-.451,2.186,2.186,0,0,0-.133-.725l-.105-.22.1-.164-.2-.152-.049-.17-.2-.152.07-.165-.215-.368-.134-.245-.287-.18-.179-.007a.63.63,0,0,0-.165-.223c-.086-.051-.2-.08-.254-.226s.326.037-.05-.146-.376-.183-.425-.353.086.052-.049-.17-.255-.2-.456-.33a1.653,1.653,0,0,0-.435-.186s.092-.044-.2-.176-.658.021-.8-.081-.456-.33-.456-.33l-.268-.011.075-.237s-.373-.231-.776-.464-.281-.275-.753-.343a.937.937,0,0,0-.723.114,1.437,1.437,0,0,0-.311.2l-.507,0-.1-.268a2.566,2.566,0,0,1-.564-.047.953.953,0,0,0-.659.044c-.155.089-.222.207-.377.3a1.383,1.383,0,0,1-.4.127l-.017.263-.007.12-.162-.27a.971.971,0,0,0-.215-.368.566.566,0,0,0-.321-.109,2.855,2.855,0,0,0-.3.012l-.072.189s-.345-.206-.559-.119a1.136,1.136,0,0,0-.375.272.415.415,0,0,0-.288-.156,1.17,1.17,0,0,0-.491.219s-.332.058-.4.223a2.4,2.4,0,0,0-.115.4.426.426,0,0,0-.169.3,1.96,1.96,0,0,0-.029.454,4.244,4.244,0,0,0-.5-.644.534.534,0,0,0-.323-.085l-.046.262a.765.765,0,0,0-.3.083.667.667,0,0,1-.577.623,1.484,1.484,0,0,0-.288.3,2.834,2.834,0,0,0-.6,0,1.393,1.393,0,0,0-.646.309l.454-.1-.469.34s.313-.227.543-.1a.332.332,0,0,1,.187.343s-.445-.042-.528-.142l-.408.319c.079.171.19.3.152.414s-.09.476-.162.664a8.333,8.333,0,0,0-.174.856,3.164,3.164,0,0,0-.1,1.17,2.209,2.209,0,0,1,.059.937,5.878,5.878,0,0,0-.173,1.311c.024.552.257,2.5.257,2.5a.552.552,0,0,0-.434-.21c-.27.013-.482.076-.491.22a1.855,1.855,0,0,0,.087.507,1.715,1.715,0,0,1,.039.792,4.358,4.358,0,0,0,.1,1.2,6,6,0,0,0,.358,1.4,1.441,1.441,0,0,0,.609.744.906.906,0,0,0,.5.092s-.011,1.1,0,1.414a4.676,4.676,0,0,0,.24,1.376A16.565,16.565,0,0,0,434,173.358l-.041.646s-.461.221-.77.376a5.356,5.356,0,0,0-1.306.833,7.458,7.458,0,0,1-1.109,1.009c-.375.272-1.237.692-1.424.8a2.115,2.115,0,0,0-.378.32s-4.266,1.406-4.848,1.645-1.792.5-2.309.648-1.46.443-2.16.654a15.6,15.6,0,0,0-2.15.51c-.4.247-.713.426-.713.426a.457.457,0,0,0-.51.051,3.907,3.907,0,0,0-.547.624l-.114.379a.783.783,0,0,0-.328.466c-.112.355-.3,1.354-.4,1.613a15.454,15.454,0,0,0-.293,2.665h-1.415V143.112Z" transform="translate(-418.343 -143.035)" fill="#b3bcdc"/>
  </g>
</svg>
